<?xml version="1.0" standalone="no"?>
<!DOCTYPE svg PUBLIC "-//W3C//DTD SVG 20010904//EN"
 "http://www.w3.org/TR/2001/REC-SVG-20010904/DTD/svg10.dtd">
<svg version="1.0" xmlns="http://www.w3.org/2000/svg"
 width="260.000000pt" height="260.000000pt" viewBox="0 0 260.000000 260.000000"
 preserveAspectRatio="xMidYMid meet">
<metadata>
Created by potrace 1.11, written by Peter Selinger 2001-2013
</metadata>
<g transform="translate(0.000000,260.000000) scale(0.100000,-0.100000)"
fill="#000000" stroke="none">
<path d="M0 1300 l0 -1300 1300 0 1300 0 0 1300 0 1300 -1300 0 -1300 0 0
-1300z m1300 980 l0 -160 -325 0 -325 0 0 160 0 160 325 0 325 0 0 -160z m810
0 l0 -160 -325 0 -325 0 0 160 0 160 325 0 325 0 0 -160z m320 0 l0 -160 -80
0 -80 0 0 160 0 160 80 0 80 0 0 -160z m-1300 -490 l0 -160 -485 0 -485 0 0
160 0 160 485 0 485 0 0 -160z m-160 -485 l0 -165 -405 0 -405 0 0 165 0 165
405 0 405 0 0 -165z m160 -490 l0 -165 -240 0 -240 0 0 165 0 165 240 0 240 0
0 -165z m-160 -485 l0 -160 -405 0 -405 0 0 160 0 160 405 0 405 0 0 -160z
m650 0 l0 -160 -245 0 -245 0 0 160 0 160 245 0 245 0 0 -160z m810 0 l0 -160
-325 0 -325 0 0 160 0 160 325 0 325 0 0 -160z"/>
</g>
</svg>
